<svg width="268" height="51" viewBox="0 0 268 51" fill="none" xmlns="http://www.w3.org/2000/svg">
<g clip-path="url(#clip0_6_14927)">
<path d="M246.054 31.7113C246.054 31.6373 246.054 31.5634 246.054 31.4895V31.933C246.054 31.8591 246.054 31.7852 246.054 31.7113ZM262.904 35.6286V27.72H249.467C247.652 27.72 246.199 29.4939 246.054 31.6373C246.126 33.8547 247.652 35.5547 249.467 35.5547H262.904V35.6286ZM262.904 39.6939H249.249C244.819 39.6939 241.188 36.146 240.97 31.7113C240.97 31.8591 240.97 32.0069 240.97 32.1547V31.2678C240.97 31.4156 240.97 31.5634 240.97 31.7113C241.188 27.2765 244.819 23.7287 249.249 23.7287H262.758C262.395 21.8808 261.088 20.5504 259.49 20.5504H245.981L244.02 18.5547L243.948 16.5591H259.635C264.211 16.5591 267.915 20.3286 267.915 24.9852V31.3417V39.7678H262.904V39.6939Z" fill="#EE2F24"/>
<path d="M153.814 31.7113C153.814 31.6373 153.814 31.5634 153.814 31.4895V31.933C153.814 31.8591 153.814 31.7852 153.814 31.7113ZM170.664 35.6286V27.72H157.228C155.412 27.72 153.96 29.4939 153.814 31.6373C153.887 33.8547 155.412 35.5547 157.228 35.5547H170.664V35.6286ZM170.664 39.6939H157.01C152.58 39.6939 148.948 36.146 148.73 31.7113C148.73 31.8591 148.73 32.0069 148.73 32.1547V31.2678C148.73 31.4156 148.73 31.5634 148.73 31.7113C148.948 27.2765 152.58 23.7287 157.01 23.7287H170.519C170.156 21.8808 168.849 20.5504 167.251 20.5504H153.742L151.781 18.5547L151.708 16.5591H167.396C171.972 16.5591 175.676 20.3286 175.676 24.9852V31.3417V39.7678H170.664V39.6939Z" fill="#EE2F24"/>
<path d="M108.277 31.4156V24.6156C108.277 22.3243 106.752 20.4765 104.864 20.4765H93.3883V35.5547H104.864C106.752 35.6287 108.277 33.7808 108.277 31.4156ZM88.377 50.5591V16.5591H93.3883H105.082C109.657 16.5591 113.361 20.3286 113.361 24.9852V31.3417C113.361 35.9982 109.657 39.7678 105.082 39.7678H93.3883V50.633H88.377V50.5591Z" fill="#EE2F24"/>
<path d="M116.702 39.694V16.4854H121.714V34.594L138.781 16.4854H145.826V39.694H140.815V21.2158L123.311 39.694H116.702Z" fill="#EE2F24"/>
<path d="M62.5205 31.7113V31.4895V31.933V31.7113ZM79.3704 35.6286V27.72H65.9341C64.1184 27.72 62.6658 29.4939 62.5205 31.6373C62.5932 33.8547 64.1184 35.5547 65.9341 35.5547H79.3704V35.6286ZM79.3704 39.6939H65.7162C61.2859 39.6939 57.6544 36.146 57.4365 31.7113C57.4365 31.8591 57.4365 32.0069 57.4365 32.1547V31.2678C57.4365 31.4156 57.4365 31.5634 57.4365 31.7113C57.6544 27.2765 61.2859 23.7287 65.7162 23.7287H79.2251C78.862 21.8808 77.5547 20.5504 75.9569 20.5504H62.4479L60.4869 18.5547L60.4143 16.5591H76.1021C80.6777 16.5591 84.3818 20.3286 84.3818 24.9852V31.3417V39.7678H79.3704V39.6939Z" fill="#EE2F24"/>
<path d="M209.957 39.694V16.4854H214.968V25.4288H232.98V16.4854H238.064V25.4288V25.9462V39.694H232.98V29.4941H214.968V39.694H209.957Z" fill="#EE2F24"/>
<path d="M200.152 35.6288V20.4767H192.526C187.442 20.4767 185.263 24.7636 185.263 31.4897V35.6288H200.152ZM177.928 42.1332V35.6288H180.179V31.7854C180.179 23.9506 183.883 16.4854 192.018 16.4854H200.152H205.164V35.6288H207.197V42.1332L204.655 42.0593L202.258 39.6201H182.794L180.397 42.0593L177.928 42.1332Z" fill="#EE2F24"/>
<path d="M2.89211 36.8855C6.45091 43.7594 13.0601 48.7116 20.6861 50.042C21.4124 50.1899 22.1387 49.8203 22.5019 49.1551C24.9712 44.8681 26.787 40.1377 27.7311 34.9638C27.949 33.6334 26.7869 32.5247 25.4796 32.8942C18.8704 34.7421 11.8254 35.2594 4.63519 34.2247C3.25524 34.0029 2.16582 35.5551 2.89211 36.8855Z" fill="#EE2F24"/>
<path d="M46.4694 21.2157C44.7989 22.7679 43.0558 24.1722 41.2401 25.4287C40.5138 25.9461 40.2959 26.8331 40.5864 27.6461C41.8211 30.6026 42.62 33.7809 42.9832 37.0331C43.2011 38.7331 45.4526 39.2505 46.3241 37.7722C48.7208 33.5592 49.9555 28.5331 49.5198 23.3592C49.5198 23.0635 49.4471 22.7679 49.4471 22.4722C49.3019 20.92 47.5588 20.2548 46.4694 21.2157Z" fill="#EE2F24"/>
<path d="M29.8379 20.1807C30.1285 22.3242 30.2737 24.4677 30.2737 26.6851C30.2737 28.0155 31.581 28.9024 32.8157 28.3111C33.9778 27.7938 35.1398 27.2025 36.2293 26.5372C37.1008 26.0198 37.3913 24.9112 36.8829 24.0242C35.7209 22.1025 34.4136 20.3285 32.8884 18.7024C31.7263 17.4459 29.6201 18.4807 29.8379 20.1807Z" fill="#EE2F24"/>
<path d="M11.7534 3.77191C10.3008 4.73278 10.8819 7.02408 12.5523 7.098C13.787 7.17191 15.0217 7.31972 16.2564 7.61538C18.1447 7.98494 19.9605 8.50234 21.7035 9.16755C23.2287 9.75886 24.6087 8.13278 23.955 6.65451C23.0835 4.80669 22.0667 3.10668 20.9046 1.40668C20.4689 0.81538 19.7426 0.519728 19.0163 0.667554C16.4016 1.33277 13.9323 2.36756 11.7534 3.77191Z" fill="#EE2F24"/>
<path d="M36.8099 28.2374C34.9215 29.2722 32.9606 30.233 30.927 31.0461C30.3459 31.2678 29.9102 31.8591 29.8375 32.5243C29.6923 33.4113 29.6196 34.2982 29.4018 35.2591C28.6028 39.6939 27.1503 43.907 25.1893 47.7504C24.5356 49.007 25.5524 50.4852 26.9324 50.4113C32.1616 49.9678 36.8825 47.8243 40.6592 44.5722C41.0224 44.2765 41.2402 43.833 41.3129 43.3157C41.676 38.3635 40.9497 33.633 39.2793 29.1983C38.9887 28.0896 37.7541 27.6461 36.8099 28.2374Z" fill="#303C4D"/>
<path d="M5.28919 9.61133C1.58512 14.4157 -0.375848 20.5505 0.059924 27.0548C0.132553 28.2374 0.350437 29.42 0.568323 30.6026C0.71358 31.3418 1.29461 31.8591 1.94827 32.007L2.5293 32.0809C11.0269 33.707 19.4518 33.0417 27.2231 30.5287C27.9494 30.307 28.3851 29.6418 28.4578 28.9026C28.7483 23.8765 28.1672 18.8504 26.7873 14.1939C26.642 13.7504 26.3515 13.3809 25.9884 13.1591C22.938 11.3113 19.5244 9.9809 15.893 9.31568C12.6973 8.72437 9.57428 8.57655 6.45125 8.94611C6.01548 9.02003 5.5797 9.24176 5.28919 9.61133Z" fill="#303C4D"/>
<path d="M23.7366 2.73731C25.4071 5.61992 26.787 8.65037 27.8765 11.8286C28.0217 12.1982 28.2396 12.5677 28.6028 12.7156C32.5247 15.4504 35.8656 18.9982 38.335 23.0634C38.8434 23.9504 40.0055 24.1721 40.877 23.5808C43.2738 21.8808 45.4526 19.9591 47.5589 17.8895C48.0673 17.3721 48.2125 16.633 47.922 15.9678C44.2906 6.65472 35.5025 0.150369 25.3345 0.00254281C23.8819 -0.0713702 23.0104 1.48079 23.7366 2.73731Z" fill="#303C4D"/>
</g>
<defs>
<clipPath id="clip0_6_14927">
<rect width="268" height="51" fill="white"/>
</clipPath>
</defs>
</svg>
