<svg width="81" height="89" viewBox="0 0 81 89" fill="none" xmlns="http://www.w3.org/2000/svg">
<path d="M22.5286 38.8423C22.5286 31.6132 22.5286 24.3841 22.5286 17.155C22.5286 12.4448 25.6366 9.33203 30.3394 9.33203C41.4625 9.33203 52.5857 9.33203 63.7088 9.33203C68.4116 9.33203 71.5195 12.4448 71.5195 17.155C71.5195 31.6132 71.5195 46.0714 71.5195 60.5295C71.5195 65.1783 68.3911 68.332 63.7497 68.332C52.6061 68.332 41.4421 68.332 30.2985 68.332C25.657 68.332 22.5286 65.1783 22.5286 60.5295C22.5082 53.3004 22.5286 46.0714 22.5286 38.8423ZM47.065 21.5785C43.0165 21.5785 38.9475 21.5785 34.899 21.5785C33.4064 21.5785 32.3227 22.6434 32.3432 24.036C32.3432 25.3876 33.4268 26.473 34.8786 26.473C42.996 26.473 51.1135 26.4934 59.2105 26.4525C59.7012 26.4525 60.2328 26.2682 60.6418 26.0224C61.5619 25.4695 61.9299 24.3636 61.6437 23.3601C61.3165 22.2748 60.4373 21.5785 59.2514 21.5785C55.162 21.5785 51.1135 21.5785 47.065 21.5785ZM47.0445 36.3029C51.093 36.3029 55.162 36.3029 59.2105 36.3029C60.6418 36.3029 61.705 35.2175 61.705 33.8454C61.705 32.4733 60.6213 31.4084 59.19 31.4084C51.0726 31.4084 42.9551 31.4084 34.8581 31.4084C33.938 31.4084 33.2224 31.7565 32.7112 32.5347C32.2 33.3334 32.1387 34.1731 32.609 35.0127C33.0997 35.8933 33.8562 36.3234 34.8581 36.3234C38.9271 36.3029 42.996 36.3029 47.0445 36.3029ZM47.0241 46.1123C51.0521 46.1123 55.0802 46.1123 59.1082 46.1123C60.2533 46.1123 61.1529 45.5389 61.5414 44.5764C62.2162 42.9176 60.9893 41.2178 59.0673 41.2178C52.7901 41.2178 46.5129 41.2178 40.2357 41.2178C38.4159 41.2178 36.6166 41.2178 34.7968 41.2178C33.7131 41.2178 32.8339 41.8322 32.4658 42.7947C31.832 44.4535 33.0384 46.1123 34.899 46.1328C38.9475 46.1328 42.996 46.1123 47.0241 46.1123ZM46.9832 55.9218C50.9908 55.9218 54.9984 55.9218 59.006 55.9218C60.6213 55.9218 61.7459 54.8978 61.7254 53.4438C61.7254 52.0103 60.6009 51.0068 58.9651 51.0068C55.0188 51.0068 51.0521 51.0068 47.1059 51.0068C43.0574 51.0068 38.9884 51.0068 34.9399 51.0068C33.8767 51.0068 33.0588 51.4369 32.5885 52.3994C31.7706 54.0582 32.977 55.9013 34.899 55.9013C38.9066 55.9422 42.9551 55.9218 46.9832 55.9218Z" fill="white"/>
<path d="M17.0276 20.341C17.0276 20.6849 17.0276 20.9884 17.0276 21.2716C17.0276 34.623 17.0276 47.9745 17.0276 61.3259C17.0276 67.3947 21.1214 72.3105 27.0797 73.4231C27.9106 73.5849 28.782 73.6254 29.6535 73.6254C38.6517 73.6456 47.6499 73.6254 56.6683 73.6254C56.9521 73.6254 57.2155 73.6254 57.4993 73.6254C57.4993 73.6659 57.5195 73.7265 57.5195 73.767C56.2022 73.9693 54.8647 74.1918 53.5474 74.3739C46.5555 75.2842 39.5637 76.1743 32.5718 77.0846C29.4914 77.4892 26.4109 77.8938 23.3304 78.2782C19.4393 78.7637 15.7509 75.9113 15.2442 71.9666C14.008 62.6003 12.792 53.2139 11.576 43.8476C10.9072 38.6689 10.1777 33.5104 9.56968 28.3114C9.06302 24.306 12.4677 20.4826 16.521 20.341C16.6629 20.3208 16.8047 20.341 17.0276 20.341Z" fill="white"/>
</svg>
