<svg width="84" height="73" viewBox="0 0 84 73" fill="none" xmlns="http://www.w3.org/2000/svg">
<path d="M4.76953 21.3039C4.88762 21.0877 4.98603 20.8714 5.10412 20.6748C5.71426 19.4756 7.05263 18.8464 8.391 19.1217C9.63096 19.3576 10.5954 20.4586 10.7135 21.7561C10.7331 22.0707 10.7331 22.3852 10.7331 22.7195C10.7331 27.6935 10.7331 32.6871 10.7135 37.6611C10.7135 38.1723 10.8512 38.4475 11.3433 38.6441C12.3077 39.0373 13.2721 39.4698 14.2759 39.8434C13.1934 38.6834 12.4455 37.3859 12.3864 35.7737C12.3274 34.1813 12.8194 32.7854 13.9216 31.6058C15.693 29.7381 18.5075 29.2859 20.7512 30.5245C23.054 31.8024 24.1759 34.4565 23.487 36.9927C22.7588 39.6664 20.5151 41.1409 17.0314 41.0819C18.0155 41.5145 18.8421 41.8683 19.6687 42.2419C21.2826 42.9496 21.696 43.6771 21.4795 45.5448C22.6997 45.1319 23.4673 45.9773 24.4121 46.4688C25.0616 46.803 25.3174 47.1372 25.2387 47.845C25.1797 48.4938 25.1993 49.1622 25.2584 49.8307C25.3174 50.8137 26.0063 51.4428 26.9904 51.5018C27.1872 51.5214 27.384 51.5018 27.5809 51.5018C42.3816 51.5018 57.2021 51.5018 72.0029 51.5018C73.7546 51.5018 74.3451 50.8923 74.3451 49.1622C74.3254 40.2955 74.3254 31.4485 74.3057 22.5818C74.3057 22.0903 74.3254 21.5792 74.4435 21.127C74.8568 19.7115 76.1952 18.9054 77.7107 19.0824C79.0294 19.2396 80.1119 20.3799 80.2496 21.7561C80.2693 21.9331 80.2693 22.0903 80.2693 22.2673C80.2693 35.2429 80.2693 48.2185 80.2693 61.1942C80.2693 62.9636 79.1868 64.2611 77.5729 64.4184C75.8606 64.5757 74.3844 63.3175 74.3254 61.5677C74.2663 60.0146 74.3057 58.4811 74.3057 56.9279C74.3057 56.6724 74.3057 56.3971 74.3057 56.1022C53.1083 56.1022 31.9896 56.1022 10.7725 56.1022C10.7725 56.869 10.7725 57.616 10.7725 58.3631C10.7725 59.3265 10.7725 60.2701 10.7725 61.2335C10.7528 62.9439 9.8081 64.1432 8.27291 64.3988C6.81645 64.6543 5.51744 63.8286 4.92699 62.2558C4.9073 62.1968 4.84826 62.1379 4.8089 62.0789C4.76953 48.4938 4.76953 34.889 4.76953 21.3039Z" fill="white"/>
<path d="M72.516 49.6933C57.2822 49.6933 42.1862 49.6933 27.0508 49.6933C27.0508 48.8086 27.0508 47.9435 27.0508 46.9802C27.3657 46.9802 27.6412 46.9802 27.9365 46.9802C34.707 46.9802 41.4973 46.9802 48.2679 46.9802C50.7675 46.9802 52.5585 45.4074 52.8734 43.0285C53.208 40.5907 51.2792 38.2511 48.7993 38.0938C48.4647 38.0742 48.1104 38.0742 47.7758 38.0742C41.2218 38.0742 34.6677 38.0742 28.1136 38.0742C27.8381 38.0742 27.5822 38.0742 27.3066 38.0742C27.4838 36.6783 29.019 35.4594 30.7116 35.3414C30.9478 35.3218 31.2037 35.3218 31.4398 35.3218C43.6229 35.3218 55.806 35.3218 67.9695 35.3218C70.9414 35.3218 72.4963 36.8946 72.4963 39.8632C72.4963 42.8516 72.4963 45.8399 72.4963 48.8479C72.516 49.1035 72.516 49.359 72.516 49.6933Z" fill="white"/>
<path d="M31.9112 33.5721C31.2617 33.5721 30.7499 33.631 30.2776 33.5524C30.0611 33.5131 29.8249 33.2575 29.7462 33.0216C29.0179 31.0752 28.7227 29.0502 28.7227 26.9663C28.7227 25.5508 28.7227 24.1352 28.7227 22.6411C28.2307 22.6411 27.8173 22.6411 27.404 22.6411C26.7742 22.6411 26.4199 22.3265 26.4199 21.6974C26.4199 19.3382 26.4199 16.979 26.4199 14.6394C26.4199 14.0103 26.7939 13.7154 27.404 13.6761C27.8173 13.6564 28.2307 13.6761 28.7227 13.6761C28.7227 13.2239 28.703 12.8307 28.7227 12.4572C28.8014 11.0416 29.5887 10.2552 31.0058 10.2159C32.0489 10.1963 33.1118 10.2159 34.2533 10.2159C34.2533 8.83972 34.214 7.52249 34.273 6.20527C34.2927 5.79241 34.4895 5.28125 34.7847 4.98635C35.513 4.31791 36.7136 4.78975 36.8907 5.77275C36.9301 5.96935 36.9104 6.16595 36.9104 6.36255C36.9104 15.2096 36.9104 24.0763 36.9104 32.9233C36.9104 33.1002 36.9104 33.2575 36.9104 33.4934C36.0444 33.4934 35.1981 33.4934 34.273 33.4934C34.273 26.3961 34.273 19.2595 34.273 12.0246C33.0921 12.0246 31.9702 12.005 30.868 12.0443C30.7499 12.0443 30.5531 12.3195 30.5334 12.4965C30.4744 12.8504 30.5138 13.2239 30.5138 13.6761C30.9861 13.6761 31.3798 13.6564 31.7931 13.6761C32.541 13.6957 32.8756 14.0103 32.8756 14.7771C32.8953 17.038 32.8953 19.2989 32.8756 21.5401C32.8756 22.3462 32.5607 22.6411 31.7537 22.6411C31.3601 22.6411 30.9861 22.6411 30.5334 22.6411C30.5334 26.3372 30.1398 29.9743 31.9112 33.5721Z" fill="white"/>
<path d="M37.4417 45.309C33.7612 45.309 30.0807 45.309 26.4001 45.309C25.1995 45.309 24.3139 44.7389 23.8415 43.6576C23.3888 42.6353 23.5266 41.6326 24.2351 40.7479C24.7862 40.0598 25.5341 39.7256 26.4198 39.7256C33.7612 39.7256 41.1025 39.7256 48.4439 39.7256C50.0578 39.7256 51.2387 40.9642 51.2387 42.537C51.2387 44.1098 50.0578 45.309 48.4242 45.3287C44.7634 45.3287 41.1025 45.309 37.4417 45.309Z" fill="white"/>
</svg>
