<svg width="92" height="94" viewBox="0 0 92 94" fill="none" xmlns="http://www.w3.org/2000/svg">
<path d="M45.3554 53.1157C45.1368 52.9222 45.0275 52.8363 44.9182 52.7503C37.8144 45.7642 30.6669 38.7782 23.5849 31.7491C18.8199 27.0201 18.9947 18.7013 23.9128 14.1013C27.0822 11.1349 30.798 10.7695 34.7762 12.1452C38.2297 13.3275 41.0275 15.4555 43.6505 17.8845C43.7816 18.0135 43.9128 18.1425 44.0658 18.2714C44.9619 19.1098 45.574 19.1098 46.4483 18.2714C48.4592 16.3368 50.6231 14.5957 53.1149 13.263C55.4537 12.0162 57.9237 11.2209 60.6122 11.4144C63.563 11.6293 65.88 13.005 67.6723 15.2836C71.2789 19.8836 71.6068 27.2996 66.6231 32.0716C59.6286 38.7782 52.8089 45.6353 45.9018 52.4064C45.727 52.6213 45.574 52.8578 45.3554 53.1157ZM41.0275 28.3099C39.7816 28.3099 38.6013 28.3099 37.4428 28.3099C36.3281 28.3313 35.869 28.7828 35.869 29.9005C35.869 31.6202 35.869 33.3398 35.869 35.038C35.869 36.1987 36.3062 36.6501 37.4865 36.6501C38.645 36.6501 39.8035 36.6501 40.9182 36.6501C40.9838 36.8006 41.0057 36.8651 41.0057 36.9081C41.0057 37.9184 41.0275 38.9501 41.0275 39.9604C41.0275 41.3362 41.4428 41.7446 42.8199 41.7446C44.3936 41.7446 45.9893 41.7446 47.563 41.7446C49.1368 41.7446 49.4865 41.4006 49.4865 39.853C49.4865 38.7997 49.4865 37.7249 49.4865 36.6286C50.7324 36.6286 51.8472 36.6286 52.9619 36.6286C54.2297 36.6286 54.6669 36.1987 54.6669 34.9305C54.6669 33.2968 54.6669 31.6632 54.6669 30.0295C54.6669 28.7183 54.2297 28.2884 52.8964 28.2884C51.7816 28.2884 50.6669 28.2884 49.4647 28.2884C49.4647 27.0846 49.4647 25.9668 49.4647 24.8491C49.4647 23.6668 49.0494 23.2369 47.8472 23.2369C46.1204 23.2369 44.4155 23.2369 42.6887 23.2369C41.3991 23.2369 41.0057 23.6453 40.9838 24.9351C41.0275 26.0528 41.0275 27.1491 41.0275 28.3099Z" fill="white"/>
<path d="M27.9777 86.0679C25.2674 86.0679 22.5788 86.0679 19.8685 86.0679C18.404 86.0679 17.7264 85.3801 17.7045 83.9399C17.7045 82.5426 17.7701 81.1454 17.6827 79.7482C17.4859 76.051 20.6116 73.9659 23.322 73.8584C26.4477 73.7295 29.5952 73.7295 32.7209 73.8584C35.475 73.9874 38.557 76.1155 38.3165 79.7697C38.2291 81.081 38.2947 82.3922 38.2947 83.7034C38.2947 85.4445 37.6827 86.0464 35.9559 86.0464C33.3111 86.0679 30.6444 86.0679 27.9777 86.0679Z" fill="white"/>
<path d="M62.492 86.0683C59.7816 86.0683 57.0931 86.0683 54.3827 86.0683C52.8527 86.0683 52.1969 85.4234 52.1969 83.9187C52.1969 82.5215 52.2625 81.1243 52.1751 79.7271C51.9565 76.1374 55.0384 73.9878 57.7488 73.8803C60.8964 73.7514 64.0876 73.7299 67.2352 73.8803C69.9237 74.0093 73.0057 76.0729 72.8089 79.8346C72.7434 81.1673 72.8089 82.5215 72.7871 83.8543C72.7871 85.4019 72.1095 86.0683 70.5576 86.0683C67.8909 86.0683 65.2024 86.0683 62.492 86.0683Z" fill="white"/>
<path d="M68.4599 65.3249C68.4599 68.5708 65.7714 71.2362 62.4927 71.2147C59.214 71.1932 56.5037 68.5063 56.5255 65.3034C56.5474 62.1006 59.214 59.4997 62.4927 59.4782C65.8151 59.4567 68.4599 62.0576 68.4599 65.3249Z" fill="white"/>
<path d="M22.0762 65.3463C22.0762 62.079 24.721 59.478 28.0434 59.478C31.3439 59.478 34.0543 62.1435 34.0106 65.3678C33.9887 68.5706 31.3221 71.1931 28.0652 71.2146C24.7866 71.2361 22.0762 68.5921 22.0762 65.3463Z" fill="white"/>
<path d="M14.8414 53.5886C13.0928 53.5886 11.3441 53.5886 9.61736 53.5886C8.19659 53.5886 8.06544 53.4596 8.06544 52.0839C8.06544 51.2456 8.10916 50.4287 8.06544 49.5904C7.89058 47.2904 9.87965 45.8932 11.6939 45.8287C13.8141 45.7427 15.9343 45.7642 18.0764 45.8287C19.7594 45.8932 21.8578 47.1829 21.6829 49.5904C21.6174 50.5147 21.6829 51.4605 21.6611 52.4063C21.6611 53.3091 21.4206 53.5671 20.5026 53.5671C18.601 53.6101 16.7212 53.5886 14.8414 53.5886Z" fill="white"/>
<path d="M77.1584 53.5885C75.3005 53.5885 73.4425 53.5885 71.6065 53.5885C70.6447 53.5885 70.4043 53.3521 70.4043 52.3848C70.4043 51.482 70.4043 50.5577 70.4043 49.6548C70.4043 47.4623 71.8251 45.9146 74.0327 45.8286C76.1311 45.7642 78.2294 45.7642 80.3278 45.8286C82.5573 45.8931 83.9999 47.4408 83.9999 49.6333C83.9999 50.5362 83.9999 51.4605 83.9999 52.3633C83.9999 53.3521 83.7595 53.5885 82.7322 53.5885C80.8524 53.61 78.9945 53.5885 77.1584 53.5885Z" fill="white"/>
<path d="M18.3385 39.7669C18.3604 41.637 16.7866 43.2062 14.8849 43.2277C12.9615 43.2492 11.3221 41.6585 11.344 39.7669C11.344 37.8968 12.9396 36.3491 14.8412 36.3276C16.7429 36.3491 18.3385 37.8968 18.3385 39.7669Z" fill="white"/>
<path d="M77.159 43.2491C75.2574 43.2276 73.6836 41.6584 73.6836 39.8098C73.6836 37.9182 75.3229 36.3275 77.2464 36.3705C79.1481 36.4135 80.7218 38.0041 80.6781 39.8528C80.6563 41.7014 79.0388 43.2491 77.159 43.2491Z" fill="white"/>
<path d="M52.0434 30.8893C50.8412 30.8893 49.7264 30.8893 48.6117 30.8893C47.322 30.8893 46.9067 30.4594 46.8849 29.1912C46.8849 28.0949 46.8849 27.0201 46.8849 25.8809C45.7701 25.8809 44.7647 25.8809 43.6499 25.8809C43.6499 26.9986 43.6499 28.0519 43.6499 29.1267C43.6499 30.5024 43.2565 30.8893 41.8357 30.8893C40.7209 30.8893 39.6281 30.8893 38.5352 30.8893C38.5352 32.0286 38.5352 33.0174 38.5352 34.0922C39.6281 34.0922 40.6554 34.0922 41.6827 34.0922C43.3002 34.0922 43.6499 34.4361 43.6499 36.0268C43.6499 37.0585 43.6499 38.0903 43.6499 39.1436C44.7865 39.1436 45.792 39.1436 46.8849 39.1436C46.8849 38.0473 46.8849 36.9726 46.8849 35.9193C46.8849 34.5006 47.3002 34.0922 48.7209 34.0922C49.8138 34.0922 50.9286 34.0922 52.0215 34.0922C52.0434 32.9744 52.0434 31.9856 52.0434 30.8893Z" fill="white"/>
<path d="M52.043 30.8893C52.043 31.9856 52.043 32.9744 52.043 34.0922C50.9501 34.0922 49.8353 34.0922 48.7424 34.0922C47.3217 34.0922 46.9064 34.5006 46.9064 35.9193C46.9064 36.9726 46.9064 38.0473 46.9064 39.1436C45.8135 39.1436 44.808 39.1436 43.6714 39.1436C43.6714 38.0903 43.6714 37.0585 43.6714 36.0268C43.6714 34.4361 43.3217 34.0922 41.7042 34.0922C40.6769 34.0922 39.6495 34.0922 38.5566 34.0922C38.5566 33.0389 38.5566 32.0286 38.5566 30.8893C39.6495 30.8893 40.7643 30.8893 41.8572 30.8893C43.2561 30.8893 43.6495 30.5024 43.6714 29.1267C43.6714 28.0519 43.6714 26.9986 43.6714 25.8809C44.7862 25.8809 45.7916 25.8809 46.9064 25.8809C46.9064 27.0201 46.9064 28.0949 46.9064 29.1912C46.9064 30.4594 47.3435 30.8678 48.6331 30.8893C49.7042 30.8893 50.8189 30.8893 52.043 30.8893Z" fill="white"/>
</svg>
