<svg width="81" height="69" viewBox="0 0 81 69" fill="none" xmlns="http://www.w3.org/2000/svg">
<path d="M4.43555 53.9357C4.43555 40.527 4.43555 27.1183 4.43555 13.7096C4.56189 13.2718 4.66016 12.8339 4.80054 12.4098C5.86744 9.16708 8.81544 7.14209 12.4934 7.14209C27.7669 7.14209 43.0264 7.14209 58.2998 7.14209C61.7111 7.14209 65.1224 7.12841 68.5336 7.15577C71.2149 7.18314 73.4189 8.23668 74.8929 10.4259C75.5527 11.3973 75.8475 12.615 76.3108 13.7233C76.3108 27.132 76.3108 40.5407 76.3108 53.9494C76.1844 54.3872 76.0862 54.825 75.9458 55.2492C74.8789 58.4919 71.9309 60.5169 68.2529 60.5169C52.6565 60.5169 37.0602 60.5169 21.4638 60.5169C18.3333 60.5169 15.2028 60.5853 12.0723 60.4895C8.81544 60.4074 6.45704 58.834 5.0813 55.947C4.7865 55.3039 4.64612 54.6061 4.43555 53.9357ZM21.3515 39.9797C21.3515 40.2944 21.3515 40.5407 21.3515 40.7733C21.3515 42.4836 21.3375 44.1939 21.3515 45.9041C21.3655 47.3682 22.2078 48.1754 23.7099 48.1754C26.3491 48.1754 29.0023 48.1754 31.6414 48.1754C33.1856 48.1754 34.0279 47.3545 34.042 45.8494C34.042 44.1391 34.042 42.4288 34.042 40.7185C34.042 40.4859 34.042 40.2397 34.042 39.966C36.1758 39.966 38.2113 39.9797 40.2468 39.966C41.6085 39.9523 42.4789 39.104 42.4789 37.7768C42.4929 35.1361 42.4929 32.4818 42.4789 29.8411C42.4789 28.5139 41.5945 27.6656 40.2328 27.6656C38.4359 27.6519 36.625 27.6656 34.8281 27.6656C34.5754 27.6656 34.3368 27.6656 34.042 27.6656C34.042 25.6817 34.042 23.7935 34.042 21.9053C34.042 20.2224 33.2418 19.4562 31.5011 19.4562C28.904 19.4562 26.3069 19.4562 23.7099 19.4562C22.2078 19.4562 21.3655 20.2634 21.3515 21.7411C21.3375 23.4104 21.3515 25.0659 21.3515 26.7352C21.3515 27.0225 21.3515 27.3099 21.3515 27.6656C21.0427 27.6656 20.804 27.6656 20.5794 27.6656C18.7825 27.6656 16.9716 27.6656 15.1747 27.6656C13.799 27.6793 12.9005 28.5002 12.9005 29.8274C12.8865 32.4955 12.8865 35.1635 12.9005 37.8316C12.9146 39.1177 13.799 39.966 15.1186 39.9797C16.4101 39.9934 17.6875 39.9797 18.979 39.9797C19.7371 39.9797 20.4952 39.9797 21.3515 39.9797ZM57.2189 23.5609C60.0265 23.5609 62.8342 23.5746 65.6277 23.5609C66.9052 23.5609 67.8738 22.6442 67.8598 21.4949C67.8458 20.3592 66.9052 19.4699 65.6558 19.4699C60.0686 19.4562 54.4815 19.4562 48.8943 19.4836C48.4591 19.4836 47.9678 19.6614 47.5887 19.8803C46.8167 20.3592 46.5359 21.2623 46.8026 22.0969C47.0834 22.9726 47.8555 23.5472 48.8662 23.5609C51.6598 23.5609 54.4394 23.5609 57.2189 23.5609ZM57.2891 31.7703C59.9985 31.7703 62.7078 31.7703 65.4172 31.7703C66.8771 31.7703 67.8738 30.9083 67.8458 29.6906C67.8317 28.4865 66.8491 27.6656 65.4312 27.6656C59.9844 27.6656 54.5376 27.6656 49.0908 27.6656C47.673 27.6656 46.7043 28.5002 46.6903 29.7043C46.6763 30.9083 47.673 31.7703 49.0628 31.7703C51.8283 31.7703 54.5657 31.7703 57.2891 31.7703ZM57.2891 39.9797C59.9985 39.9797 62.7078 39.9797 65.4172 39.9797C66.8771 39.9797 67.8738 39.1177 67.8458 37.9C67.8317 36.6959 66.8491 35.875 65.4312 35.875C59.9844 35.875 54.5376 35.875 49.0908 35.875C47.673 35.875 46.7043 36.7096 46.6903 37.9137C46.6763 39.1177 47.673 39.9797 49.0628 39.9797C51.8283 39.9797 54.5517 39.9797 57.2891 39.9797ZM55.1834 44.0844C53.1479 44.0844 51.1123 44.0844 49.0768 44.0844C47.673 44.0844 46.6903 44.9464 46.7043 46.1504C46.7184 47.3271 47.687 48.1891 49.0487 48.1891C53.1198 48.1891 57.1908 48.1891 61.2619 48.1891C62.6657 48.1891 63.6484 47.3271 63.6343 46.1231C63.6203 44.919 62.6517 44.0981 61.2338 44.0844C59.2123 44.0844 57.2049 44.0844 55.1834 44.0844Z" fill="white"/>
<path d="M29.8167 23.6157C29.8167 25.5449 29.8167 27.4331 29.8167 29.3213C29.8167 31.0179 30.6028 31.7704 32.3436 31.7704C34.2808 31.7704 36.2181 31.7704 38.2115 31.7704C38.2115 33.1386 38.2115 34.4658 38.2115 35.8751C37.2569 35.8751 36.3023 35.8751 35.3477 35.8751C34.2247 35.8751 33.1016 35.8614 31.9786 35.8751C30.6871 35.8888 29.8307 36.7371 29.8167 37.9822C29.8027 39.7335 29.8167 41.4985 29.8167 43.2499C29.8167 43.4962 29.8167 43.7424 29.8167 44.0298C28.3848 44.0298 27.0231 44.0298 25.5912 44.0298C25.5912 43.0994 25.5912 42.1963 25.5912 41.2933C25.5912 40.2398 25.6053 39.1999 25.5912 38.1464C25.5772 36.6824 24.7208 35.8751 23.2188 35.8614C21.4359 35.8614 19.6671 35.8614 17.8843 35.8614C17.6597 35.8614 17.421 35.8614 17.1543 35.8614C17.1543 34.4932 17.1543 33.1797 17.1543 31.7567C17.407 31.7567 17.6456 31.7567 17.8983 31.7567C19.6812 31.7567 21.45 31.7567 23.2328 31.7567C24.7208 31.7567 25.5772 30.9358 25.5912 29.4718C25.6053 27.5289 25.5912 25.5997 25.5912 23.6021C26.981 23.6157 28.3567 23.6157 29.8167 23.6157Z" fill="white"/>
</svg>
