<svg width="80" height="79" viewBox="0 0 80 79" fill="none" xmlns="http://www.w3.org/2000/svg">
<path d="M36.1922 22.8854C36.1922 25.4338 36.1922 27.9989 36.1922 30.5473C36.1756 33.5787 34.2796 35.4941 31.2525 35.4941C26.1299 35.4941 21.0072 35.4941 15.8845 35.4941C12.8908 35.4775 10.9781 33.562 10.9781 30.5806C10.9781 25.4338 10.9615 20.2704 10.9781 15.1237C10.9781 12.1756 12.9074 10.2434 15.8513 10.2434C21.0238 10.2268 26.1798 10.2268 31.3523 10.2434C34.2629 10.2434 36.1756 12.1756 36.1922 15.0904C36.1922 17.6887 36.1922 20.2871 36.1922 22.8854Z" fill="white"/>
<path d="M68.0741 22.8691C68.0741 25.4174 68.0741 27.9825 68.0741 30.5309C68.0741 33.5956 66.1614 35.4944 63.0845 35.4944C57.9951 35.4944 52.9223 35.4944 47.8329 35.4944C44.756 35.4944 42.8433 33.5956 42.8433 30.5309C42.8433 25.3841 42.8267 20.2207 42.8433 15.074C42.8433 12.6422 44.2737 10.81 46.519 10.327C46.9348 10.2437 47.3839 10.2271 47.8163 10.2271C52.9057 10.2271 57.9785 10.2271 63.0679 10.2271C66.1614 10.2271 68.0575 12.1258 68.0575 15.2405C68.0741 17.7889 68.0741 20.3207 68.0741 22.8691Z" fill="white"/>
<path d="M36.1917 54.8154C36.1917 57.3472 36.1917 59.8789 36.1917 62.4106C36.1917 65.492 34.2957 67.3908 31.2354 67.4075C26.1293 67.4075 21.0233 67.4075 15.9173 67.4075C12.857 67.4075 10.9609 65.492 10.9609 62.4106C10.9609 57.3139 10.9609 52.2337 10.9609 47.137C10.9609 44.0556 12.857 42.1568 15.9173 42.1401C21.0566 42.1401 26.2125 42.1401 31.3518 42.1401C33.7801 42.1401 35.593 43.5559 36.0753 45.8211C36.1584 46.2375 36.1751 46.6873 36.1751 47.1203C36.1917 49.702 36.1917 52.2671 36.1917 54.8154Z" fill="white"/>
<path d="M55.4337 40.8242C56.7143 40.8575 57.8287 41.2906 58.7434 42.19C61.8536 45.2881 64.9638 48.3694 68.0241 51.5008C69.8702 53.3829 69.8869 56.1812 68.0407 58.0633C64.9638 61.1947 61.8702 64.2927 58.7601 67.3741C56.864 69.2396 54.0532 69.2396 52.1572 67.3574C49.0636 64.2927 45.97 61.1947 42.9097 58.0966C41.0137 56.1645 41.0303 53.3663 42.943 51.4508C46.0033 48.3694 49.0802 45.3047 52.1405 42.24C53.0553 41.3239 54.153 40.8742 55.4337 40.8242Z" fill="white"/>
</svg>
