<svg width="72" height="75" viewBox="0 0 72 75" fill="none" xmlns="http://www.w3.org/2000/svg">
<path d="M9.10919 32.5447C9.10919 29.2992 9.10919 26.1077 9.10919 22.8622C9.10919 21.4017 9.65516 20.4822 11.0747 19.8871C19.0457 16.4793 26.9622 12.9093 34.9332 9.39329C36.0251 8.90646 37.0079 8.85237 38.0998 9.3392C46.2346 12.9634 54.4241 16.5334 62.6135 20.1035C63.7055 20.5903 63.9784 21.564 63.9784 22.5917C63.9784 25.2963 63.9784 28.055 63.9784 30.7596C63.9784 34.4379 64.0876 38.1161 63.8146 41.7403C62.9957 54.1815 57.2085 63.7017 46.3984 70.1386C43.7232 71.7614 40.8842 73.0596 37.8268 73.8169C36.9533 74.0332 35.9706 74.0873 35.097 73.8169C24.3961 70.4091 16.2613 63.9721 11.7844 53.5324C9.87354 49.0968 9.10919 44.4449 9 39.6307C9.0546 37.3589 9.10919 34.9247 9.10919 32.5447ZM37.2809 60.6184C38.1544 60.5102 39.7923 60.4021 41.3756 60.0775C44.0508 59.5366 46.5076 58.617 48.4731 56.6156C50.9299 54.1274 50.9845 50.6655 48.4731 48.2854C47.4358 47.3118 46.2346 46.4463 44.9243 45.9054C40.2837 43.904 35.5338 43.8499 30.6747 45.0399C28.3817 45.5809 26.307 46.5545 24.6145 48.2854C22.2123 50.7737 22.2123 54.1815 24.6691 56.6156C25.3789 57.3188 26.1978 57.9138 27.0168 58.4007C29.965 60.0775 33.1861 60.5102 37.2809 60.6184ZM36.5165 22.5377C31.8758 22.5377 28.2725 26.0536 28.2725 30.6515C28.2725 35.2493 31.8212 38.8193 36.4619 38.8193C41.1026 38.8734 44.7605 35.2493 44.7605 30.6515C44.7605 26.0536 41.2118 22.5377 36.5165 22.5377Z" fill="white"/>
</svg>
