<svg width="68" height="73" viewBox="0 0 68 73" fill="none" xmlns="http://www.w3.org/2000/svg">
<path d="M66 40.5C66 58.4551 51.7193 73 34 73C16.3211 73 2 58.4551 2 40.5C2 22.5449 16.3211 8 34 8C51.6789 8.04109 66 22.5449 66 40.5ZM34.6877 68.3982C35.4159 68.3161 36.8319 68.275 38.2478 68.0284C42.9406 67.2889 47.1884 65.3989 50.9507 62.3995C51.5575 61.9475 51.7193 61.3312 51.4766 60.6327C49.6561 54.9627 46.0152 50.9772 40.5537 48.7585C40.1492 48.5942 39.6233 48.5942 39.2187 48.7585C35.7396 50.1144 32.3009 50.1144 28.8217 48.7996C28.3767 48.6353 27.8104 48.6353 27.3654 48.7996C22.0253 50.9772 18.4248 54.8805 16.5638 60.4684C16.2402 61.4956 16.3616 61.9064 17.2111 62.6049C22.2276 66.426 27.7699 68.3571 34.6877 68.3982ZM24.8571 35.8571C24.8571 40.952 28.9027 45.1429 33.9595 45.1839C39.0164 45.225 43.1429 41.0341 43.1429 35.8982C43.1429 30.7623 39.0973 26.6125 34.0405 26.6125C28.9431 26.5714 24.8571 30.7212 24.8571 35.8571Z" fill="white"/>
</svg>
