<svg width="73" height="72" viewBox="0 0 73 72" fill="none" xmlns="http://www.w3.org/2000/svg">
<path d="M32.3503 6.72559C35.0848 6.72559 37.8192 6.72559 40.5537 6.72559C40.6025 6.74978 40.6513 6.79817 40.7002 6.79817C44.0938 7.18526 46.5353 10.3304 46.4376 13.7659C46.3644 17.2014 46.4132 20.6127 46.4132 24.0482C46.4132 25.4998 46.9991 26.0804 48.464 26.0804C51.9798 26.0804 55.4955 26.0562 59.0112 26.0804C61.8921 26.1046 64.1383 27.2659 65.4078 29.9272C65.7008 30.532 65.8229 31.2095 66.0182 31.8627C66.0182 34.5724 66.0182 37.282 66.0182 39.9917C65.9938 40.0401 65.945 40.0885 65.945 40.1369C65.5543 43.4998 62.3804 45.9191 58.9135 45.8224C55.4711 45.7498 52.0286 45.7982 48.5861 45.7982C47.048 45.7982 46.4864 46.3546 46.4864 47.8546C46.4864 51.3627 46.462 54.8707 46.4864 58.3788C46.5353 62.7337 42.9951 65.3224 39.5282 65.2498C37.453 65.2014 35.3777 65.2982 33.3025 65.2256C32.3259 65.1772 31.2761 65.032 30.3971 64.6207C27.7359 63.4111 26.5152 61.2095 26.4908 58.3546C26.4664 54.8949 26.4908 51.4111 26.4908 47.9514C26.4908 46.4272 25.9292 45.8949 24.4155 45.8949C20.8998 45.8949 17.3841 45.8707 13.8684 45.8949C9.49814 45.9191 6.91018 42.4595 6.95901 39.024C7.00784 36.9675 6.91018 34.9111 6.98343 32.8546C7.03226 31.8627 7.17875 30.7982 7.5938 29.9272C8.83895 27.3143 11.0607 26.1046 13.9416 26.0804C17.4085 26.0562 20.8754 26.0804 24.3179 26.0804C25.856 26.0804 26.4175 25.4998 26.4175 23.9756C26.4175 20.3466 26.3931 16.7417 26.442 13.1127C26.4664 10.4272 28.1266 8.15301 30.6901 7.18526C31.2272 6.99172 31.7888 6.87075 32.3503 6.72559Z" fill="white"/>
</svg>
