<svg width="72" height="73" viewBox="0 0 72 73" fill="none" xmlns="http://www.w3.org/2000/svg">
<path d="M16.4813 27.6659C14.8417 27.6659 13.3572 27.6659 11.8727 27.6659C9.945 27.6659 9.03656 28.5814 9.0144 30.502C9.0144 30.7923 9.0144 31.1049 9.0144 31.5292C8.34969 31.5292 7.72929 31.5292 7.13105 31.5292C5.64653 31.5292 4.16201 31.5515 2.65533 31.5069C2.4116 31.5069 2.03493 31.2612 1.96846 31.0602C0.572569 25.4997 0.41747 20.0062 3.09847 14.7136C9.25813 2.60995 25.4106 0.309804 34.6723 10.2026C34.8717 10.426 35.0711 10.6716 35.2927 10.8279C35.9574 11.3192 36.5113 11.0512 36.9987 10.5153C38.9707 8.30447 41.3194 6.65194 44.0225 5.51304C55.7436 0.577782 69.0378 8.23748 70.7882 20.9218C71.2535 24.3161 70.8326 27.6659 70.0571 30.9709C69.9463 31.4399 69.6804 31.5292 69.2594 31.5292C66.1131 31.5069 62.9668 31.5069 59.8427 31.5292C59.333 31.5292 59.1558 31.3505 59.045 30.8593C57.9815 25.6784 56.8958 20.5198 55.8101 15.3389C55.7436 15.0039 55.6993 14.5573 55.4777 14.3563C55.1897 14.1107 54.6801 13.865 54.3699 13.9543C54.0154 14.066 53.5944 14.5126 53.5279 14.8699C53.1955 16.4331 52.9961 18.041 52.7302 19.6265C51.4451 27.7105 50.1822 35.7722 48.8971 43.8562C48.7863 44.5708 48.6755 45.2854 48.5426 46C48.4539 46 48.3875 46 48.2988 46C48.1437 45.1291 47.9886 44.2805 47.8335 43.4095C46.6814 36.3975 45.5292 29.3631 44.3549 22.351C44.2663 21.882 44.0004 21.3461 43.6459 21.0781C43.0033 20.6314 42.2943 21.0557 42.0284 21.9713C41.1421 24.8298 40.2337 27.6882 39.436 30.5689C39.2145 31.3729 38.8599 31.5739 38.0844 31.5515C36.7107 31.4845 35.337 31.5292 33.8524 31.5292C33.8524 31.0826 33.8524 30.7029 33.8524 30.3233C33.8303 28.6708 32.8554 27.6659 31.2158 27.6659C29.6426 27.6435 28.0916 27.6659 26.4298 27.6659C26.4077 27.3532 26.3855 27.0852 26.3855 26.8396C26.3855 25.455 26.4077 24.0482 26.3855 22.6636C26.3634 21.2121 25.3663 20.1848 23.9261 20.1625C22.2422 20.1402 20.5582 20.1402 18.8964 20.1625C17.4562 20.1848 16.4813 21.2121 16.4592 22.6859C16.4592 24.2938 16.4813 25.924 16.4813 27.6659Z" fill="white"/>
<path d="M1.98242 33.82C4.13432 33.82 6.17296 33.82 8.32486 33.82C8.32486 34.2857 8.32486 34.707 8.32486 35.1284C8.34751 36.5699 9.36683 37.5678 10.8392 37.59C12.4927 37.6121 14.1463 37.59 15.9131 37.59C15.9358 37.9448 15.9584 38.2109 15.9584 38.4992C15.9584 39.8741 15.9358 41.2712 15.9584 42.6462C15.9811 43.9989 16.9778 45.019 18.3822 45.0412C20.1263 45.0856 21.8705 45.0634 23.6147 45.0412C25.0417 45.019 26.061 44.0211 26.1063 42.624C26.129 41.2491 26.1063 39.852 26.1063 38.477C26.1063 38.2109 26.129 37.9448 26.1516 37.59C27.6919 37.59 29.1643 37.59 30.6593 37.59C32.8339 37.59 33.7173 36.7251 33.7399 34.5962C33.7399 34.3522 33.7399 34.1083 33.7399 33.7535C34.5101 33.7535 35.2349 33.7535 35.9371 33.7535C37.1603 33.7535 38.3835 33.7313 39.584 33.7535C40.4674 33.7756 40.9658 33.4208 41.2149 32.5781C41.6453 31.1145 42.0983 29.673 42.574 28.2316C42.642 27.9876 42.7552 27.7658 43.0497 27.5441C43.3215 29.163 43.616 30.7597 43.8878 32.3785C45.0657 39.3863 46.2662 46.3718 47.4441 53.3795C47.4668 53.5126 47.5121 53.6456 47.5347 53.7787C47.6253 54.4218 47.9878 54.821 48.69 54.821C49.3922 54.821 49.7319 54.3996 49.8452 53.7565C50.0943 52.3151 50.3209 50.8736 50.5474 49.4321C51.9065 41.0051 53.2882 32.5781 54.6473 24.1733C54.7606 23.4636 54.8738 22.754 55.0097 22.0222C55.0777 22.0222 55.1457 22 55.2136 22C55.3042 22.3548 55.4401 22.7318 55.5081 23.0866C56.1876 26.2135 56.8445 29.3404 57.5241 32.4672C57.7506 33.4873 58.0224 33.7313 59.1097 33.7313C62.3488 33.7313 65.588 33.7313 68.8272 33.7313C69.1443 33.7313 69.4614 33.7313 69.9824 33.7313C69.3482 35.2393 68.8272 36.592 68.2156 37.9226C64.4781 45.9061 58.9964 52.6255 52.4954 58.591C48.622 62.1392 44.4088 65.2217 39.8105 67.8607C37.183 69.3687 34.6686 69.3908 32.0637 67.8607C19.7639 60.609 10.137 50.9179 3.79455 38.2553C3.1603 36.969 2.68462 35.6163 2.14098 34.2857C2.07303 34.1748 2.05038 34.0418 1.98242 33.82Z" fill="white"/>
</svg>
