<svg width="85" height="85" viewBox="0 0 85 85" fill="none" xmlns="http://www.w3.org/2000/svg">
<path d="M50.9994 9.08243C50.6289 9.29267 50.3673 9.43984 50.084 9.60803C43.7853 13.119 37.4866 16.63 31.1661 20.12C30.643 20.4144 30.4468 20.7087 30.4686 21.2763C30.5122 23.7572 30.4904 26.259 30.4686 28.7609C30.4686 29.3075 30.6648 29.6229 31.1443 29.8752C32.5609 30.632 33.9776 31.452 35.3943 32.2298C36.1353 32.6293 36.4404 32.4611 36.4622 31.6412C36.4622 29.2444 36.484 26.8687 36.4622 24.472C36.4622 24.0095 36.593 23.7151 37.0289 23.4839C43.502 19.8888 49.975 16.2937 56.4481 12.6775C56.8622 12.4463 57.1456 12.4463 57.5379 12.6775C59.3904 13.7287 61.243 14.7799 63.1173 15.7891C63.902 16.2096 64.2725 16.7772 64.2725 17.6812C64.2507 24.472 64.2507 31.2627 64.2725 38.0535C64.2725 38.9155 63.9456 39.4831 63.1827 39.9036C57.0802 43.2885 50.9776 46.6733 44.8968 50.0792C44.1122 50.5207 43.4148 50.5417 42.6084 50.0792C36.5276 46.6733 30.425 43.2885 24.3225 39.9036C23.5597 39.4831 23.2109 38.9155 23.2109 38.0535C23.2327 31.2417 23.2327 24.4089 23.2109 17.5971C23.2109 16.7772 23.5379 16.2306 24.2789 15.8101C30.3815 12.4252 36.4622 9.04038 42.543 5.63449C43.3712 5.17197 44.0904 5.17197 44.8968 5.63449C46.8802 6.81184 48.8853 7.90508 50.9994 9.08243Z" fill="white"/>
<path d="M35.8525 49.2592C37.6397 50.2473 39.3833 51.2144 41.1269 52.1815C41.3666 52.3077 41.5845 52.5179 41.8461 52.56C43.0448 52.7492 43.132 53.506 43.0666 54.4731C42.9794 55.8607 43.0666 57.2483 43.0448 58.6359C43.0448 59.1405 43.2192 59.4558 43.6769 59.6871C45.0717 60.4229 46.4448 61.2218 47.8397 61.9997C48.7333 62.5043 48.9948 62.3571 49.0166 61.369C49.0166 59.0143 49.0384 56.6386 49.0166 54.2839C49.0166 53.8004 49.1692 53.5481 49.6051 53.2958C56.0563 49.7217 62.5076 46.1266 68.9371 42.5315C69.373 42.3003 69.6781 42.2792 70.114 42.5315C71.9666 43.5827 73.8192 44.6129 75.6935 45.6431C76.4563 46.0635 76.8051 46.6102 76.8051 47.4932C76.7833 54.3049 76.7833 61.1378 76.8051 67.9495C76.8051 68.7695 76.4781 69.3371 75.7371 69.7366C69.591 73.1425 63.4448 76.5694 57.3204 79.9963C56.623 80.3957 55.9692 80.3957 55.2499 79.9963C49.082 76.5483 42.9358 73.1214 36.7679 69.6945C36.1576 69.3581 35.7871 68.8956 35.7871 68.1808C35.7871 61.9997 35.7871 55.7977 35.7871 49.6166C35.7871 49.5325 35.8089 49.4274 35.8525 49.2592Z" fill="white"/>
<path d="M21.4251 41.1021C22.4931 41.7328 23.452 42.3425 24.4546 42.9101C27.1354 44.4028 29.8161 45.9166 32.4969 47.3883C32.9764 47.6616 33.1726 47.9559 33.1508 48.5025C33.129 53.0017 33.129 57.5218 33.1508 62.021C33.1508 62.5676 32.9764 62.8619 32.4751 63.1142C31.5379 63.5767 30.6225 64.1234 29.729 64.649C29.0315 65.0484 28.3777 65.0694 27.6584 64.67C21.4905 61.222 15.3008 57.7741 9.11101 54.3262C8.45716 53.9688 8.17383 53.4432 8.17383 52.7283C8.17383 45.8325 8.17383 38.9366 8.17383 32.0407C8.17383 31.3469 8.41357 30.8213 9.04562 30.4639C12.7508 28.4036 16.4777 26.3222 20.1828 24.2619C20.27 24.2198 20.379 24.1988 20.5751 24.1567C20.5751 25.9438 20.5751 27.6677 20.5751 29.3707C20.5751 30.2747 20.8366 31.368 20.4225 32.0618C20.0084 32.7556 18.8969 33.0709 18.0905 33.5334C17.2405 34.038 16.0418 34.3534 15.6059 35.0892C15.17 35.8461 15.4533 37.0234 15.4315 38.0116C15.4097 39.7355 15.4533 41.4805 15.4097 43.2045C15.4097 43.7721 15.5623 44.1295 16.1072 44.4028C17.5238 45.1387 18.8751 45.9376 20.27 46.7155C21.0982 47.178 21.3815 47.0098 21.3815 46.0637C21.4469 44.4028 21.4251 42.7419 21.4251 41.1021Z" fill="white"/>
</svg>
