<svg width="73" height="73" viewBox="0 0 73 73" fill="none" xmlns="http://www.w3.org/2000/svg">
<path d="M4 18.2059C4.71715 15.4615 6.81736 14.0365 9.02003 12.8227C12.4265 10.9491 16.1403 10.0255 19.9565 9.52413C24.6692 8.9172 29.3563 9.04914 33.9921 10.0255C37.6034 10.7908 41.1123 11.9255 44.1346 14.2213C44.7749 14.6962 45.364 15.2768 45.8762 15.9101C47.3874 17.7045 47.3618 19.6836 45.8762 21.4781C44.4419 23.2197 42.5722 24.328 40.5745 25.2252C36.7326 26.9668 32.7115 27.7849 28.5623 28.0488C23.4398 28.3918 18.4198 27.9432 13.5022 26.3863C11.1715 25.6474 8.91758 24.6711 6.94542 23.1669C5.56236 22.1114 4.43541 20.8975 4 19.1031C4 18.8128 4 18.4962 4 18.2059Z" fill="white"/>
<path d="M4.02646 29.1572C5.37618 29.8122 6.69943 30.54 8.10208 31.1222C11.7013 32.6262 15.5123 33.451 19.4026 33.9361C22.4991 34.3243 25.6219 34.397 28.7448 34.2757C29.8034 34.2515 30.862 34.1302 32 34.0574C31.8941 34.2272 31.8147 34.3728 31.7089 34.4698C30.3327 36.0709 29.1947 37.7932 28.3214 39.6854C28.189 39.9522 28.0832 40.1463 27.6862 40.1463C22.3667 40.2433 17.1796 39.7096 12.1512 38.0115C9.95463 37.2595 7.89036 36.3377 6.1172 34.9065C5.11153 34.0817 4.37051 33.1113 4 31.9227C4.02647 30.9766 4.02646 30.0548 4.02646 29.1572Z" fill="white"/>
<path d="M4 54.1572C6.08897 55.3468 8.25629 56.3421 10.5803 57.0947C14.1315 58.2357 17.7872 58.9154 21.5474 59.1582C23.4536 59.2795 25.3859 59.2553 27.3182 59.3281C27.501 59.3281 27.7621 59.4009 27.8404 59.5223C28.911 61.2945 29.9294 63.0909 31 64.9602C29.5116 65.0331 27.9188 65.1302 26.3259 65.1544C21.5213 65.203 16.8211 64.6204 12.2776 63.1152C10.3975 62.484 8.59575 61.7072 7.0029 60.5905C5.61896 59.6437 4.47002 58.527 4.02611 56.9247C4 56.0022 4 55.0797 4 54.1572Z" fill="white"/>
<path d="M4 41.1572C7.2346 43.4573 10.8175 44.8057 14.5995 45.7046C17.7844 46.4713 21.0438 46.815 24.3033 46.8679C24.5521 46.8679 24.7761 46.8679 25 46.8679C25 49.0094 25 51.0715 25 53.1337C24.1043 53.1337 23.1836 53.1866 22.2382 53.1337C17.6102 52.8165 13.1066 51.8911 8.92654 49.591C7.2346 48.6657 5.64218 47.5553 4.62204 45.7575C4.34834 45.2816 4.19905 44.6999 4 44.1712C4 43.1401 4 42.1619 4 41.1572Z" fill="white"/>
<path d="M68.9999 49.6572C69.0256 59.8065 60.7777 68.1572 50.5257 68.1572C40.2736 68.1829 32.0258 59.935 32.0001 49.6829C31.9744 39.4822 40.325 31.1572 50.4743 31.1572C60.6493 31.1829 68.9742 39.4822 68.9999 49.6572Z" fill="white"/>
</svg>
