<svg width="73" height="73" viewBox="0 0 73 73" fill="none" xmlns="http://www.w3.org/2000/svg">
<path d="M4.47656 40.4047C4.97771 39.327 5.84636 38.9954 7.01569 39.0286C9.22073 39.0783 11.4258 39.0452 13.6475 39.0452C15.0173 39.0452 15.6187 39.5591 15.8859 40.8689C17.4395 48.3298 21.6992 53.6684 28.8656 56.4372C35.5642 59.0236 42.029 58.1946 48.0427 54.2818C49.3958 53.4031 50.0807 53.4363 51.2166 54.5637C52.8036 56.1387 54.4072 57.7138 55.9942 59.3055C57.1635 60.466 57.08 61.61 55.777 62.5882C50.7155 66.3518 45.0525 68.5237 38.7381 68.9714C38.5711 68.9879 38.4207 69.0377 38.2537 69.0708C37.0008 69.0708 35.748 69.0708 34.4951 69.0708C34.3113 69.0377 34.1276 68.9879 33.9438 68.9714C31.7722 68.59 29.5338 68.4408 27.4624 67.7942C15.7022 64.097 8.20173 56.288 5.09464 44.417C4.84407 43.4719 4.67702 42.4937 4.47656 41.5321C4.47656 41.1508 4.47656 40.786 4.47656 40.4047Z" fill="white"/>
<path d="M4.47656 32.8443C4.67702 31.8993 4.84407 30.9543 5.07794 30.0092C8.4189 17.4751 16.4205 9.53342 29.0159 6.16776C30.0516 5.88591 31.1374 5.73669 32.2065 5.5709C33.4928 5.37194 34.4784 6.18434 34.4951 7.47755C34.5118 9.93133 34.5118 12.4017 34.4951 14.8555C34.4951 15.9663 33.8937 16.6129 32.7244 16.8284C27.3788 17.8398 23.0356 20.476 19.7448 24.7535C17.7569 27.3399 16.504 30.2745 15.8859 33.4744C15.6354 34.7842 15.0006 35.2981 13.6475 35.2981C11.4258 35.2981 9.18732 35.265 6.96558 35.3147C5.81295 35.3479 4.99441 34.9831 4.49327 33.9386C4.47656 33.5904 4.47656 33.2091 4.47656 32.8443Z" fill="white"/>
<path d="M68.5226 36.6245C68.4391 44.4003 66.2508 50.8664 61.8741 56.5863C61.0222 57.6972 59.8194 57.7801 58.8171 56.7853C57.1299 55.1273 55.4595 53.4528 53.7723 51.7783C52.8201 50.8332 52.7366 50.0208 53.505 48.91C56.0775 45.1796 57.3638 41.0513 57.2135 36.525C56.8961 26.6767 49.8299 18.5859 40.0409 16.8119C38.8382 16.5963 38.2702 15.9332 38.2535 14.7228C38.2535 12.3188 38.2368 9.93133 38.2535 7.52729C38.2535 6.18434 39.2224 5.35536 40.5254 5.53774C47.7084 6.53251 53.9226 9.51684 59.051 14.6234C64.2963 19.8459 67.3867 26.1462 68.2554 33.491C68.4057 34.751 68.4725 35.9945 68.5226 36.6245Z" fill="white"/>
<path d="M39.4564 47.9484C37.4017 47.9484 35.3637 47.9484 33.2422 47.9484C33.2422 47.7328 33.2422 47.5173 33.2422 47.3018C33.2422 40.4046 33.2422 33.4909 33.2422 26.5938C33.2422 25.1348 33.9605 24.4219 35.4138 24.4053C36.1655 24.4053 36.9172 24.3887 37.669 24.4053C38.7047 24.4385 39.4898 25.2011 39.4898 26.2291C39.5065 33.3749 39.4898 40.5373 39.4898 47.6831C39.4898 47.766 39.4731 47.8323 39.4564 47.9484Z" fill="white"/>
<path d="M43.2812 47.9813C43.2812 41.7639 43.2812 35.6129 43.2812 29.4287C43.4149 29.4121 43.5485 29.379 43.6822 29.379C44.9684 29.379 46.2714 29.3624 47.5577 29.379C48.7103 29.3955 49.4954 30.1582 49.4954 31.2856C49.5121 36.2263 49.5121 41.1671 49.4954 46.1078C49.4954 47.1689 48.7103 47.9647 47.6579 47.9978C46.2213 47.9978 44.7847 47.9813 43.2812 47.9813Z" fill="white"/>
<path d="M29.4669 34.3365C29.4669 38.9125 29.4669 43.4056 29.4669 47.9484C27.8967 47.9484 26.3432 48.0147 24.7896 47.9318C23.9042 47.8821 23.2528 47.0696 23.2528 46.1743C23.2361 42.8253 23.2361 39.4762 23.2528 36.1437C23.2528 35.1821 24.0212 34.3862 24.9901 34.3531C26.4601 34.3034 27.9301 34.3365 29.4669 34.3365Z" fill="white"/>
</svg>
