<svg width="79" height="88" viewBox="0 0 79 88" fill="none" xmlns="http://www.w3.org/2000/svg">
<path d="M47.4421 8.68891C47.4421 9.04484 47.4421 9.33797 47.4421 9.61015C47.4421 14.2164 47.4421 18.8017 47.4421 23.4079C47.4421 26.6323 49.5418 28.747 52.7434 28.747C57.3171 28.747 61.87 28.747 66.4436 28.747C66.7139 28.747 67.005 28.747 67.3584 28.747C67.3584 29.1029 67.3584 29.3751 67.3584 29.6473C67.3584 43.801 67.3584 57.9756 67.3584 72.1293C67.3584 76.2959 64.7597 78.913 60.6018 78.913C46.8392 78.913 33.0558 78.913 19.2931 78.913C15.1976 78.913 12.5989 76.2959 12.5781 72.1502C12.5781 53.2438 12.5781 34.3163 12.5781 15.4098C12.5781 11.327 15.1976 8.68891 19.2308 8.66797C28.3365 8.66797 37.4423 8.66797 46.5481 8.66797C46.7976 8.68891 47.0679 8.68891 47.4421 8.68891ZM39.9786 68.884C44.8434 68.884 49.7289 68.884 54.5936 68.884C56.3815 68.884 57.4002 67.8581 57.4002 66.0784C57.4002 57.0962 57.4002 48.1141 57.4002 39.1319C57.4002 37.2894 56.4023 36.2844 54.5521 36.2844C44.8226 36.2844 35.1139 36.2844 25.3844 36.2844C23.5342 36.2844 22.5363 37.2685 22.5363 39.1319C22.5363 48.0931 22.5363 57.0544 22.5363 66.0156C22.5363 67.9209 23.5134 68.9049 25.426 68.9049C30.2908 68.884 35.1347 68.884 39.9786 68.884Z" fill="white"/>
<path d="M50.185 9.29639C55.6111 14.8867 61.0371 20.477 66.5879 26.1929C66.1721 26.2138 65.9642 26.2348 65.7356 26.2348C61.4113 26.2348 57.0663 26.2348 52.7421 26.2348C50.9127 26.2348 49.9355 25.2716 49.9355 23.4501C49.9355 18.9904 49.9355 14.5098 49.9355 10.0501C49.9355 9.84076 49.9355 9.65232 49.9355 9.44295C50.0187 9.40107 50.1019 9.33826 50.185 9.29639Z" fill="white"/>
<path d="M54.8839 38.8389C54.8839 41.3304 54.8839 43.7801 54.8839 46.2717C48.2729 46.2717 41.7034 46.2717 35.0508 46.2717C35.0508 43.822 35.0508 41.3514 35.0508 38.8389C41.641 38.8389 48.2313 38.8389 54.8839 38.8389Z" fill="white"/>
<path d="M35.0293 56.301C35.0293 53.8094 35.0293 51.3597 35.0293 48.8682C41.6403 48.8682 48.2098 48.8682 54.8625 48.8682C54.8625 51.3178 54.8625 53.7885 54.8625 56.301C48.2722 56.301 41.6819 56.301 35.0293 56.301Z" fill="white"/>
<path d="M54.8839 58.918C54.8839 61.4095 54.8839 63.8592 54.8839 66.3508C48.2729 66.3508 41.7034 66.3508 35.0508 66.3508C35.0508 63.9011 35.0508 61.4514 35.0508 58.918C41.641 58.918 48.2313 58.918 54.8839 58.918Z" fill="white"/>
<path d="M25.0723 46.2507C25.0723 43.7591 25.0723 41.3094 25.0723 38.8179C27.5254 38.8179 29.9578 38.8179 32.4525 38.8179C32.4525 41.2675 32.4525 43.7172 32.4525 46.2507C30.0202 46.2507 27.5878 46.2507 25.0723 46.2507Z" fill="white"/>
<path d="M25.0938 48.8472C27.5677 48.8472 29.9793 48.8472 32.4324 48.8472C32.4324 51.3178 32.4324 53.7884 32.4324 56.3009C30.0001 56.3009 27.5469 56.3009 25.0938 56.3009C25.0938 53.8093 25.0938 51.3178 25.0938 48.8472Z" fill="white"/>
<path d="M25.0508 66.3298C25.0508 63.8383 25.0508 61.4095 25.0508 58.918C27.5039 58.918 29.9571 58.918 32.4518 58.918C32.4518 61.3467 32.4518 63.8173 32.4518 66.3298C30.0195 66.3298 27.5663 66.3298 25.0508 66.3298Z" fill="white"/>
</svg>
